<svg width="48" height="48" viewBox="0 0 48 48" fill="none" xmlns="http://www.w3.org/2000/svg">
<path fill-rule="evenodd" clip-rule="evenodd" d="M23.9439 15.2805C18.9658 15.2805 14.9287 19.3125 14.9287 24.2789C14.9287 29.2484 18.9658 33.2805 23.9439 33.2805C28.8916 33.2805 32.9287 29.2484 32.9287 24.2789C32.9287 19.3125 28.8916 15.2805 23.9439 15.2805ZM23.9439 17.0523C27.9203 17.0523 31.1682 20.2894 31.1682 24.2789C31.1682 28.2715 27.9203 31.5087 23.9439 31.5087C19.9371 31.5087 16.6893 28.2715 16.6893 24.2789C16.6893 20.2894 19.9371 17.0523 23.9439 17.0523ZM24.642 28.3383H23.0333V29.9492H24.642V28.3383ZM22.3958 22.4434C22.3958 21.6485 23.0333 21.0023 23.8225 21.0023C24.6117 21.0023 25.2795 21.6485 25.2795 22.4434C25.2795 22.8712 25.067 23.1686 24.8242 23.4204C24.6117 23.6631 24.3385 23.8694 24.0957 24.0757C23.4582 24.6218 23.0029 25.2012 23.0029 25.9324V26.7546H24.642V25.9324C24.642 25.7776 24.7634 25.6806 24.8849 25.5653C25.067 25.3893 25.2795 25.2225 25.4919 25.0405C26.2204 24.4125 26.9186 23.6539 26.9186 22.4434C26.9186 20.7414 25.5223 19.358 23.8225 19.358C22.1226 19.358 20.7263 20.7414 20.7263 22.4434V23.2656H22.3958V22.4434Z" fill="white" fill-opacity="0.5"/>
</svg>
