<svg width="48" height="48" viewBox="0 0 48 48" fill="none" xmlns="http://www.w3.org/2000/svg">
<path fill-rule="evenodd" clip-rule="evenodd" d="M20.3761 27.594H19.2096C17.5263 27.594 16.1596 28.9163 16.1596 30.545C16.1596 32.1737 17.5263 33.496 19.2096 33.496C20.893 33.496 22.2599 32.1737 22.2599 30.545C22.2599 30.545 22.2599 24.196 22.2599 23.0018C22.2599 22.9643 22.2372 22.9299 22.2049 22.9142C22.1694 22.8955 22.1274 22.8986 22.0951 22.9205C21.7106 23.1737 20.7542 23.8021 20.4602 23.9927C20.4085 24.0271 20.3761 24.0865 20.3761 24.149C20.3761 24.7274 20.3761 27.594 20.3761 27.594ZM30.6474 27.594H29.4812C27.7979 27.594 26.431 28.9163 26.431 30.545C26.431 32.1737 27.7979 33.496 29.4812 33.496C31.1646 33.496 32.5312 32.1737 32.5312 30.545C32.5312 30.545 32.5312 19.1567 32.5312 17.9094C32.5312 17.8813 32.5183 17.8531 32.4989 17.8313C32.4763 17.8094 32.4472 17.8 32.4149 17.8C31.4747 17.8 25.0029 17.8 24.0304 17.8C23.9626 17.8 23.9077 17.85 23.9077 17.9156C23.9077 18.247 23.9077 19.1755 23.9077 19.5037C23.9077 19.535 23.9205 19.5662 23.9431 19.5881C23.9657 19.61 23.9981 19.6225 24.0304 19.6225C24.864 19.6225 29.7203 19.6225 30.5313 19.6225C30.5636 19.6225 30.5927 19.635 30.6121 19.6537C30.6347 19.6756 30.6474 19.7037 30.6474 19.7319C30.6474 20.6947 30.6474 27.594 30.6474 27.594ZM20.3761 30.545C20.3761 30.1136 20.3761 29.4165 20.3761 29.4165H19.2096C18.5667 29.4165 18.0435 29.9229 18.0435 30.545C18.0435 31.1671 18.5667 31.6735 19.2096 31.6735C19.8526 31.6735 20.3761 31.1671 20.3761 30.545ZM30.6474 30.545C30.6474 30.1136 30.6474 29.4165 30.6474 29.4165H29.4812C28.8383 29.4165 28.3148 29.9229 28.3148 30.545C28.3148 31.1671 28.8383 31.6735 29.4812 31.6735C30.1242 31.6735 30.6474 31.1671 30.6474 30.545ZM18.9027 17.8C18.8736 17.8 18.8479 17.7875 18.8285 17.7687C18.8059 17.75 18.7962 17.7218 18.7962 17.6937C18.7962 17.3123 18.7962 15.9806 18.7962 15.5992C18.7962 15.5711 18.7833 15.5461 18.7639 15.5273C18.7445 15.5085 18.7187 15.496 18.6897 15.496C18.3569 15.496 17.3487 15.496 17.0191 15.496C16.99 15.496 16.961 15.5085 16.9416 15.5273C16.9222 15.5461 16.9126 15.5711 16.9126 15.5992C16.9126 15.9806 16.9126 17.3123 16.9126 17.6937C16.9126 17.7218 16.8997 17.75 16.8803 17.7687C16.8609 17.7875 16.8316 17.8 16.8025 17.8C16.4084 17.8 15.032 17.8 14.6378 17.8C14.6087 17.8 14.5829 17.8094 14.5636 17.8281C14.5409 17.8469 14.5312 17.875 14.5312 17.9031C14.5312 18.222 14.5312 19.1973 14.5312 19.5193C14.5312 19.5475 14.5409 19.5724 14.5636 19.5912C14.5829 19.61 14.6087 19.6225 14.6378 19.6225C15.032 19.6225 16.4084 19.6225 16.8025 19.6225C16.8316 19.6225 16.8609 19.6318 16.8803 19.6537C16.8997 19.6725 16.9126 19.6975 16.9126 19.7256V21.8201C16.9126 21.8483 16.9222 21.8764 16.9416 21.8952C16.961 21.9139 16.99 21.9233 17.0191 21.9233C17.3487 21.9233 18.3569 21.9233 18.6897 21.9233C18.7187 21.9233 18.7445 21.9139 18.7639 21.8952C18.7833 21.8764 18.7962 21.8483 18.7962 21.8201C18.7962 21.4387 18.7962 20.107 18.7962 19.7256C18.7962 19.6975 18.8059 19.6725 18.8285 19.6537C18.8479 19.6318 18.8736 19.6225 18.9027 19.6225C19.2969 19.6225 20.6733 19.6225 21.0675 19.6225C21.0966 19.6225 21.1226 19.61 21.1452 19.5912C21.1646 19.5724 21.1743 19.5475 21.1743 19.5193C21.1743 19.1973 21.1743 18.222 21.1743 17.9031C21.1743 17.875 21.1646 17.8469 21.1452 17.8281C21.1226 17.8094 21.0966 17.8 21.0675 17.8C20.6733 17.8 19.2969 17.8 18.9027 17.8Z" fill="white" fill-opacity="0.5"/>
</svg>
