<svg width="48" height="48" viewBox="0 0 48 48" fill="none" xmlns="http://www.w3.org/2000/svg">
<path fill-rule="evenodd" clip-rule="evenodd" d="M33.109 31.5863C33.109 31.5247 33.0469 31.4755 32.9849 31.4755C31.7125 31.4755 19.5159 31.4755 18.2125 31.4755C18.1504 31.4755 18.1194 31.5247 18.1194 31.5863C18.1194 31.9063 18.1194 32.8417 18.1194 33.1617C18.1194 33.2232 18.1504 33.2725 18.2125 33.2725C19.5159 33.2725 31.7125 33.2725 32.9849 33.2725C33.0469 33.2725 33.109 33.2232 33.109 33.1617V31.5863ZM33.109 26.7063C33.109 26.6448 33.0469 26.5955 32.9849 26.5955C31.7125 26.5955 19.5159 26.5955 18.2125 26.5955C18.1504 26.5955 18.1194 26.6448 18.1194 26.7063V28.2817C18.1194 28.3433 18.1504 28.3925 18.2125 28.3925C19.5159 28.3925 31.7125 28.3925 32.9849 28.3925C33.0469 28.3925 33.109 28.3433 33.109 28.2817C33.109 27.9617 33.109 27.0263 33.109 26.7063ZM24.109 21.5709C24.1401 21.5371 24.2021 21.5186 24.2332 21.5186C24.9469 21.5186 30.9056 21.5186 30.9056 21.5186C31.4642 21.5186 31.9297 21.0633 31.9297 20.4971C31.9297 19.934 31.4642 19.4755 30.9056 19.4755C30.9056 19.4755 25.5987 19.4755 24.7607 19.4755C24.7297 19.4755 24.6987 19.4632 24.6987 19.4448C24.6676 19.4232 24.6676 19.3955 24.6676 19.3678C24.6676 19.0478 24.6676 18.1094 24.6676 17.7894C24.6676 17.7617 24.6676 17.734 24.6987 17.7125C24.6987 17.694 24.7297 17.6817 24.7607 17.6817C25.5987 17.6817 30.9056 17.6817 30.9056 17.6817C32.4883 17.6817 33.7607 18.9433 33.7607 20.4971C33.7607 22.054 32.4883 23.3155 30.9056 23.3155C30.9056 23.3155 23.8297 23.3124 22.5573 23.3094C22.5263 23.3094 22.4952 23.2878 22.4952 23.2571C22.4642 23.2294 22.4642 23.1955 22.4952 23.1709C22.8676 22.8047 23.8918 21.8047 24.109 21.5709ZM19.9504 17.5371C19.9194 17.5371 19.8883 17.5278 19.8883 17.5063C19.8573 17.4848 19.8573 17.4571 19.8573 17.4294C19.8573 17.0448 19.8573 15.7648 19.8573 15.3802C19.8573 15.3525 19.8263 15.3248 19.8263 15.3032C19.7952 15.2848 19.7642 15.2725 19.7332 15.2725C19.4228 15.2725 18.4607 15.2725 18.1504 15.2725C18.1194 15.2725 18.0883 15.2848 18.0573 15.3032C18.0573 15.3248 18.0263 15.3525 18.0263 15.3802C18.0263 15.7648 18.0263 17.0448 18.0263 17.4294C18.0263 17.4571 18.0263 17.4848 17.9952 17.5063C17.9952 17.5278 17.9642 17.5371 17.9332 17.5371H15.8538C15.8228 17.5371 15.7918 17.5494 15.7918 17.5709C15.7607 17.5894 15.7607 17.6171 15.7607 17.6478C15.7607 17.9678 15.7607 18.9032 15.7607 19.2232C15.7607 19.254 15.7607 19.2817 15.7918 19.3002C15.7918 19.3217 15.8228 19.334 15.8538 19.334C16.2573 19.334 17.5297 19.334 17.9332 19.334C17.9642 19.334 17.9952 19.3432 17.9952 19.3648C18.0263 19.3863 18.0263 19.414 18.0263 19.4417C18.0263 19.8263 18.0263 21.1063 18.0263 21.4909C18.0263 21.5186 18.0573 21.5463 18.0573 21.5678C18.0883 21.5894 18.1194 21.5986 18.1504 21.5986C18.4607 21.5986 19.4228 21.5986 19.7332 21.5986C19.7642 21.5986 19.7952 21.5894 19.8263 21.5678C19.8263 21.5463 19.8573 21.5186 19.8573 21.4909C19.8573 21.1063 19.8573 19.8263 19.8573 19.4417C19.8573 19.414 19.8573 19.3863 19.8883 19.3648C19.8883 19.3432 19.9194 19.334 19.9504 19.334C20.3538 19.334 21.6263 19.334 22.0297 19.334C22.0607 19.334 22.0918 19.3217 22.0918 19.3002C22.1228 19.2817 22.1228 19.254 22.1228 19.2232C22.1228 18.9032 22.1228 17.9678 22.1228 17.6478C22.1228 17.6171 22.1228 17.5894 22.0918 17.5709C22.0918 17.5494 22.0607 17.5371 22.0297 17.5371C21.6263 17.5371 20.3538 17.5371 19.9504 17.5371Z" fill="white" fill-opacity="0.5"/>
</svg>
