<svg width="48" height="48" viewBox="0 0 48 48" fill="none" xmlns="http://www.w3.org/2000/svg">
<path fill-rule="evenodd" clip-rule="evenodd" d="M18.165 32.6323H19.6062V30.8094H17.3709V32.6323H18.165ZM33.165 16.8487C33.165 15.6245 32.3121 14.6323 31.2239 14.6323H23.8121C22.7239 14.6323 21.8709 15.6245 21.8709 16.8487V30.3991C21.8709 31.6233 22.7239 32.6155 23.8121 32.6155H31.2239C32.3121 32.6155 33.165 31.6233 33.165 30.3991V16.8487ZM31.5768 16.8487V30.3991C31.5768 30.6177 31.4297 30.796 31.2239 30.796H23.8121C23.6062 30.796 23.4592 30.6177 23.4592 30.3991V16.8487C23.4592 16.6301 23.6062 16.4518 23.8121 16.4518H31.2239C31.4297 16.4518 31.5768 16.6301 31.5768 16.8487ZM27.518 23.6559C28.7827 23.6559 29.7827 24.8195 29.7827 26.2556C29.7827 27.6917 28.7827 28.8588 27.518 28.8588C26.2533 28.8588 25.2533 27.6917 25.2533 26.2556C25.2533 24.8195 26.2533 23.6559 27.518 23.6559ZM18.8121 14.6323H17.1062C16.018 14.6323 15.165 15.6178 15.165 16.8319V25.213C15.165 26.4271 16.018 27.4126 17.1062 27.4126H19.6062V25.5931H17.1062C16.9003 25.5931 16.7533 25.4215 16.7533 25.213V16.8319C16.7533 16.6234 16.9003 16.4518 17.1062 16.4518H19.6062V14.6323H18.8121ZM27.518 18.4159C28.1356 18.4159 28.665 18.9978 28.665 19.7141C28.665 20.4339 28.1356 21.0157 27.518 21.0157C26.9003 21.0157 26.3709 20.4339 26.3709 19.7141C26.3709 18.9978 26.9003 18.4159 27.518 18.4159Z" fill="white" fill-opacity="0.5"/>
</svg>
