<svg width="48" height="48" viewBox="0 0 48 48" fill="none" xmlns="http://www.w3.org/2000/svg">
<path fill-rule="evenodd" clip-rule="evenodd" d="M16.5506 29.6907V28.4856C16.5506 27.9248 16.098 27.4685 15.5409 27.4685C14.9839 27.4685 14.5312 27.9248 14.5312 28.4856V33.1284H19.1618C19.7189 33.1284 20.1715 32.6721 20.1715 32.1114C20.1715 31.5506 19.7189 31.0978 19.1618 31.0978H18.0129L21.7382 27.3676C22.1212 26.9705 22.1212 26.3261 21.7382 25.9291C21.3204 25.5355 20.6937 25.5355 20.3107 25.9325L16.5506 29.6907ZM29.0496 17.1624L25.3243 20.8927C24.9413 21.2897 24.9413 21.9306 25.3243 22.3276C25.7421 22.7247 26.3688 22.7212 26.7518 22.3242L30.5119 18.566V19.7747C30.5119 20.3354 30.9645 20.7882 31.5216 20.7882C32.0786 20.7882 32.5312 20.3354 32.5312 19.7747V15.1284H27.9007C27.3436 15.1284 26.891 15.5846 26.891 16.1454C26.891 16.7061 27.3436 17.1624 27.9007 17.1624H29.0496Z" fill="white" fill-opacity="0.5"/>
</svg>
