<svg width="48" height="48" viewBox="0 0 48 48" fill="none" xmlns="http://www.w3.org/2000/svg">
<path fill-rule="evenodd" clip-rule="evenodd" d="M19.3988 31.5563C16.7927 29.9242 15.0352 26.9494 15.0352 23.5563C15.0352 20.1601 16.7927 17.1884 19.3988 15.5563L20.2776 17.1537C18.217 18.4713 16.823 20.8456 16.823 23.5563C16.823 26.2639 18.217 28.6412 20.2776 29.9557L19.3988 31.5563ZM27.7927 29.9557C29.8533 28.6412 31.2473 26.2639 31.2473 23.5563C31.2473 20.8456 29.8533 18.4713 27.7927 17.1537L28.6715 15.5563C31.2776 17.1884 33.0352 20.1601 33.0352 23.5563C33.0352 26.9494 31.2776 29.9242 28.6715 31.5563L27.7927 29.9557ZM21.217 28.2544C19.7018 27.2732 18.7018 25.5343 18.7018 23.5563C18.7018 21.5752 19.7018 19.8362 21.217 18.855L22.0655 20.4556C21.0958 21.1191 20.4594 22.2607 20.4594 23.5563C20.4594 24.8519 21.0958 25.9903 22.0655 26.6538L21.217 28.2544ZM26.0049 26.6538C26.9746 25.9903 27.6109 24.8519 27.6109 23.5563C27.6109 22.2607 26.9746 21.1191 26.0049 20.4556L26.8533 18.855C28.3685 19.8362 29.3685 21.5752 29.3685 23.5563C29.3685 25.5343 28.3685 27.2732 26.8533 28.2544L26.0049 26.6538ZM24.0352 21.9022C24.9139 21.9022 25.6412 22.6444 25.6412 23.5563C25.6412 24.4683 24.9139 25.2073 24.0352 25.2073C23.1564 25.2073 22.4291 24.4683 22.4291 23.5563C22.4291 22.6444 23.1564 21.9022 24.0352 21.9022Z" fill="white" fill-opacity="0.5"/>
</svg>
