<svg width="48" height="48" viewBox="0 0 48 48" fill="none" xmlns="http://www.w3.org/2000/svg">
<path fill-rule="evenodd" clip-rule="evenodd" d="M23.9135 14.7084C18.9658 14.7084 14.9287 18.7404 14.9287 23.7069C14.9287 28.6733 18.9658 32.7084 23.9135 32.7084C28.8916 32.7084 32.9287 28.6733 32.9287 23.7069C32.9287 18.7404 28.8916 14.7084 23.9135 14.7084ZM23.9135 16.4802C27.9203 16.4802 31.1682 19.7173 31.1682 23.7069C31.1682 27.6964 27.9203 30.9366 23.9135 30.9366C19.9371 30.9366 16.6893 27.6964 16.6893 23.7069C16.6893 19.7173 19.9371 16.4802 23.9135 16.4802ZM20.7567 24.5927H27.981V22.824H19.8764V24.5927H20.7567Z" fill="white" fill-opacity="0.5"/>
</svg>
