<svg width="48" height="48" viewBox="0 0 48 48" fill="none" xmlns="http://www.w3.org/2000/svg">
<path fill-rule="evenodd" clip-rule="evenodd" d="M16.3154 24.9237C16.3154 24.9237 21.1227 30.9094 22.7451 32.9168C23.0155 33.284 23.4662 33.496 23.9169 33.496C24.3976 33.496 24.8182 33.284 25.1187 32.9168C26.3505 31.3795 29.5353 27.4496 31.5483 24.9237C32.8703 23.2708 33.291 21.0143 32.5999 18.9817C32.1192 17.5775 31.0977 16.4505 29.7757 15.8856C28.4537 15.3207 26.9514 15.3722 25.6595 16.0266L23.9169 16.9063L22.2043 16.0266C20.9124 15.3722 19.4101 15.3207 18.0881 15.8856C16.7661 16.4505 15.7446 17.5775 15.2639 18.9817C14.5728 21.0143 14.9634 23.2708 16.3154 24.9237ZM24.0671 31.3851C24.0371 31.4291 23.977 31.4546 23.9169 31.4546C23.8868 31.4546 23.8267 31.4291 23.7967 31.3851C22.8352 30.2235 17.6374 23.7578 17.6374 23.7578C16.706 22.5962 16.4356 21.0103 16.9163 19.5815C17.2168 18.6684 17.8778 17.9354 18.7491 17.5679C19.6204 17.2006 20.5819 17.234 21.4231 17.6598C22.5949 18.2512 23.5563 18.7354 23.5563 18.7354C23.7967 18.8589 24.0671 18.8589 24.3075 18.7354L26.4407 17.6598C27.2519 17.234 28.2434 17.2006 29.1147 17.5679C29.956 17.9354 30.647 18.6684 30.9474 19.5815C31.4282 21.0103 31.1578 22.5962 30.1963 23.7578C30.1963 23.7578 24.9985 30.2235 24.0671 31.3851Z" fill="white" fill-opacity="0.5"/>
</svg>
