<svg width="48" height="48" viewBox="0 0 48 48" fill="none" xmlns="http://www.w3.org/2000/svg">
<path fill-rule="evenodd" clip-rule="evenodd" d="M22.889 19.8913L15.587 28.0164C14.4935 29.2287 14.5452 31.0852 15.6964 32.2369C16.8506 33.3915 18.7065 33.4402 19.9185 32.3493L28.0407 25.0446C29.286 25.0538 30.5193 24.598 31.4305 23.6773C33.3138 21.7995 33.253 18.6607 31.2483 16.6704C29.2709 14.6832 26.1331 14.6255 24.2559 16.5033C23.3355 17.424 22.8799 18.6455 22.889 19.8913ZM26.6586 24.0753L18.8188 31.1278C18.2569 31.6322 17.3942 31.611 16.8596 31.0731C16.325 30.5383 16.3039 29.6784 16.8081 29.1163C18.8341 26.8647 22.4518 22.8387 23.8582 21.2738L26.6586 24.0753ZM28.2988 23.3917L24.5416 19.633C24.5902 18.9068 24.8787 18.2079 25.4194 17.667C26.6739 16.4121 28.7667 16.5063 30.094 17.8341C31.4305 19.162 31.5217 21.2586 30.2763 22.5135C29.7235 23.0513 29.0248 23.343 28.2988 23.3917Z" fill="white" fill-opacity="0.5"/>
</svg>
