<svg width="48" height="48" viewBox="0 0 48 48" fill="none" xmlns="http://www.w3.org/2000/svg">
<path fill-rule="evenodd" clip-rule="evenodd" d="M32.5614 31.318C32.5614 31.2469 32.5066 31.1936 32.4381 31.1936C31.0174 31.1936 17.5636 31.1936 16.1429 31.1936C16.0778 31.1936 16.023 31.2469 16.023 31.318C16.023 31.6874 16.023 32.7674 16.023 33.1404C16.023 33.2079 16.0778 33.2647 16.1429 33.2647C17.5636 33.2647 31.0174 33.2647 32.4381 33.2647C32.5066 33.2647 32.5614 33.2079 32.5614 33.1404V31.318ZM32.5614 25.6839C32.5614 25.6164 32.5066 25.5596 32.4381 25.5596C31.0174 25.5596 17.5636 25.5596 16.1429 25.5596C16.0778 25.5596 16.023 25.6164 16.023 25.6839C16.023 26.0569 16.023 27.1369 16.023 27.5063C16.023 27.5738 16.0778 27.6306 16.1429 27.6306C17.5636 27.6306 31.0174 27.6306 32.4381 27.6306C32.5066 27.6306 32.5614 27.5738 32.5614 27.5063V25.6839ZM15.3076 18.5188C15.3076 16.7212 16.7112 15.2647 18.44 15.2647H30.1581C31.8869 15.2647 33.3076 16.7212 33.3076 18.5188C33.3076 20.3127 31.8869 21.7692 30.1581 21.7692H18.44C16.7112 21.7692 15.3076 20.3127 15.3076 18.5188ZM17.3033 18.5188C17.3033 17.8651 17.8135 17.3393 18.44 17.3393H30.1581C30.7846 17.3393 31.2948 17.8651 31.2948 18.5188C31.2948 19.1688 30.7846 19.6981 30.1581 19.6981H18.44C17.8135 19.6981 17.3033 19.1688 17.3033 18.5188Z" fill="white" fill-opacity="0.5"/>
</svg>
