<svg width="48" height="48" viewBox="0 0 48 48" fill="none" xmlns="http://www.w3.org/2000/svg">
<path fill-rule="evenodd" clip-rule="evenodd" d="M25.0625 28.2806L26.0498 27.2459C26.3982 26.8819 26.3982 26.2944 26.0498 25.9303C25.7045 25.5663 25.139 25.5663 24.7906 25.9303L21.7131 29.146L24.7906 32.3617C25.139 32.7225 25.7045 32.7225 26.0498 32.3617C26.3982 31.9977 26.3982 31.4069 26.0498 31.0428L25.0625 30.0114H28.6808C31.0248 30.0114 32.9287 28.0187 32.9287 25.5695V19.071C32.9287 16.6218 31.0248 14.6323 28.6808 14.6323H19.1797C16.8327 14.6323 14.9287 16.6218 14.9287 19.071V25.5695C14.9287 28.0187 16.8327 30.0114 19.1797 30.0114H20.0232V28.2806H19.1797C17.7464 28.2806 16.5852 27.0639 16.5852 25.5695V19.071C16.5852 17.5766 17.7464 16.36 19.1797 16.36H28.6808C30.1111 16.36 31.2756 17.5766 31.2756 19.071V25.5695C31.2756 27.0639 30.1111 28.2806 28.6808 28.2806H25.0625Z" fill="white" fill-opacity="0.5"/>
</svg>
