<svg width="48" height="48" viewBox="0 0 48 48" fill="none" xmlns="http://www.w3.org/2000/svg">
<path fill-rule="evenodd" clip-rule="evenodd" d="M30.5701 21.5309C30.6073 21.5309 30.6445 21.5497 30.6817 21.5872C30.7189 21.621 30.7189 21.666 30.7189 21.7148C30.7189 23.0178 30.7189 30.8843 30.7189 32.1873C30.7189 32.2886 30.6445 32.3713 30.5701 32.3713C29.0453 32.3713 18.7809 32.3713 17.2561 32.3713C17.2189 32.3713 17.1817 32.3525 17.1445 32.3187C17.1073 32.2849 17.1073 32.2361 17.1073 32.1873C17.1073 30.8843 17.1073 23.0178 17.1073 21.7148C17.1073 21.6134 17.1817 21.5309 17.2561 21.5309C17.7767 21.5309 19.1156 21.5309 19.5618 21.5309C19.6362 21.5309 19.6734 21.4708 19.6734 21.3995C19.6734 21.009 19.6734 19.8637 19.6734 19.4732C19.6734 19.4018 19.6362 19.3418 19.5618 19.3418H16.2147C15.88 19.3418 15.5453 19.4769 15.285 19.721C15.0618 19.9613 14.9131 20.2918 14.9131 20.6335C14.9131 22.1354 14.9131 31.7667 14.9131 33.2687C14.9131 33.6142 15.0618 33.9408 15.285 34.1849C15.5453 34.4252 15.88 34.5641 16.2147 34.5641C17.8883 34.5641 29.9379 34.5641 31.6114 34.5641C31.9461 34.5641 32.2809 34.4252 32.5412 34.1849C32.7643 33.9408 32.9131 33.6142 32.9131 33.2687C32.9131 31.7667 32.9131 22.1354 32.9131 20.6335C32.9131 20.2918 32.7643 19.9613 32.5412 19.721C32.2809 19.4769 31.9461 19.3418 31.6114 19.3418C31.6114 19.3418 28.8966 19.3418 28.2643 19.3418C28.2271 19.3418 28.1899 19.3568 28.1899 19.3793C28.1528 19.4056 28.1528 19.4394 28.1528 19.4732C28.1528 19.8637 28.1528 21.009 28.1528 21.3995C28.1528 21.4333 28.1528 21.4671 28.1899 21.4933C28.1899 21.5159 28.2271 21.5309 28.2643 21.5309C28.7106 21.5309 30.0494 21.5309 30.5701 21.5309ZM23.9131 12.5641C23.9503 12.5641 23.9875 12.5792 24.0247 12.6017C24.6197 13.225 28.1156 16.7321 28.1156 16.7321C28.5247 17.1602 28.5247 17.8548 28.1156 18.2829C27.7065 18.6621 27.1486 18.7034 26.7023 18.4105V18.3917L26.6652 18.388C26.628 18.3542 26.5908 18.3204 26.5536 18.2829L25.1404 16.8598C25.1404 16.8335 25.1032 16.826 25.066 16.841C25.0288 16.856 24.9916 16.8898 24.9916 16.9273C24.9916 18.1214 24.9916 23.4609 24.9916 23.4609C24.9916 24.0654 24.5081 24.5573 23.9131 24.5573C23.318 24.5573 22.8346 24.0692 22.8346 23.4647C22.8346 23.4647 22.8346 18.1327 22.8346 16.9424C22.8346 16.9048 22.7974 16.8672 22.7602 16.8522C22.723 16.8372 22.6858 16.8485 22.6486 16.8748L21.2726 18.2829C21.2354 18.3204 21.1982 18.3542 21.161 18.388L21.1238 18.4068V18.4105C20.6775 18.7034 20.1197 18.6621 19.7478 18.2829C19.3015 17.8548 19.3015 17.1602 19.7478 16.7321C19.7478 16.7321 23.2065 13.225 23.8387 12.6017C23.8387 12.5792 23.8759 12.5641 23.9131 12.5641Z" fill="white" fill-opacity="0.5"/>
</svg>
