<svg width="48" height="48" viewBox="0 0 48 48" fill="none" xmlns="http://www.w3.org/2000/svg">
<path fill-rule="evenodd" clip-rule="evenodd" d="M23.1956 14.5645C23.231 14.5614 23.2663 14.5798 23.2855 14.6073C23.3016 14.6378 23.3016 14.6744 23.2823 14.705C22.3505 16.0275 21.8074 17.6158 21.8074 19.3263C21.8074 23.9171 25.7276 27.6465 30.5604 27.6465C31.2416 27.6465 31.9068 27.5702 32.5462 27.4297C32.5816 27.4236 32.6169 27.4358 32.6393 27.4602C32.6618 27.4877 32.6683 27.5244 32.6522 27.558C31.097 30.5238 27.8709 32.5641 24.1499 32.5641C18.9123 32.5641 14.6611 28.5201 14.6611 23.5414C14.6611 18.8682 18.4046 15.0226 23.1956 14.5645Z" fill="white" fill-opacity="0.5"/>
</svg>
