<svg width="48" height="48" viewBox="0 0 48 48" fill="none" xmlns="http://www.w3.org/2000/svg">
<path fill-rule="evenodd" clip-rule="evenodd" d="M22.7253 24.8376C22.6126 25.1571 22.3591 25.381 22.0774 25.594C21.6267 25.9244 21.0915 26.2085 20.5563 26.5553C19.3168 27.3882 18.1337 28.5133 18.1337 30.9137V31.7084H32.6689V30.9137C32.6689 28.5133 31.514 27.3882 30.2464 26.5553C29.7112 26.2085 29.176 25.9244 28.7253 25.594C28.4436 25.381 28.1901 25.1571 28.0774 24.8376C28.1056 24.7912 28.1337 24.7093 28.1901 24.6546C28.3027 24.469 28.4718 24.2723 28.6408 24.0484C29.176 23.3575 29.7394 22.4754 29.7394 21.2711C29.7394 18.8052 27.7675 17.0547 25.4295 17.0383H25.4013C23.0633 17.0383 21.0633 18.797 21.0633 21.2711C21.0633 22.4782 21.6267 23.3602 22.1619 24.0539C22.3309 24.2751 22.4999 24.4717 22.6126 24.6546C22.6689 24.7093 22.6971 24.7912 22.7253 24.8376ZM19.852 30.1163C20.1337 28.6526 21.176 28.0463 22.1056 27.4865C23.1478 26.8584 24.0492 26.233 24.3309 25.1953C24.4718 24.7529 24.3591 24.2696 23.9647 23.7453C23.5704 23.18 22.7253 22.47 22.7253 21.2711C22.7253 19.7309 23.9366 18.6304 25.4013 18.6304H25.4295C26.8661 18.6413 28.1056 19.7364 28.1056 21.2711C28.1056 22.4672 27.2323 23.1772 26.838 23.7453C26.4718 24.2696 26.3309 24.7529 26.4718 25.1953C26.7816 26.233 27.6549 26.8584 28.6971 27.4865C29.6267 28.0463 30.6689 28.6526 30.9506 30.1163H19.852ZM18.3873 17.721V15.7084H16.7535V17.721H14.6689V19.3131H16.7535V21.3257H18.3873V19.3131H20.4718V17.721H18.3873Z" fill="white" fill-opacity="0.5"/>
</svg>
