<svg width="48" height="48" viewBox="0 0 48 48" fill="none" xmlns="http://www.w3.org/2000/svg">
<path fill-rule="evenodd" clip-rule="evenodd" d="M20.4994 24.775C20.3709 25.1844 20.0494 25.4712 19.6959 25.742C19.1494 26.1482 18.5066 26.4995 17.8959 26.9282C16.4173 27.9469 15.0352 29.3233 15.0352 32.2631V33.2044H26.5102L25.3209 31.4154L16.9959 31.3219C17.2852 29.4684 18.5709 28.7044 19.6959 28.0049C20.9173 27.2377 21.978 26.4769 22.3316 25.2037C22.4923 24.6718 22.3316 24.0884 21.9137 23.4565C21.3994 22.7506 20.403 21.8706 20.403 20.3813C20.403 18.4601 21.8816 17.0869 23.6173 17.0869H23.6494C25.4173 17.0998 26.8637 18.4666 26.8637 20.3813C26.8637 21.8641 25.8673 22.7474 25.3852 23.4533C24.9352 24.0884 24.7744 24.6718 24.9352 25.2037C25.0637 25.6969 25.3209 26.1159 25.6423 26.4834L26.2209 27.2022L27.6673 25.987L27.0566 25.2681C26.928 25.1231 26.8316 24.9619 26.7673 24.775C26.7994 24.7169 26.8637 24.6009 26.8959 24.5267C27.0566 24.3011 27.2816 24.0561 27.4744 23.7821C28.1173 22.9311 28.7602 21.8545 28.7602 20.3813C28.7602 17.3674 26.4137 15.2237 23.6816 15.2044H23.6494C20.853 15.2044 18.5066 17.3545 18.5066 20.3813C18.5066 21.8609 19.1494 22.9375 19.7923 23.7853C20.0173 24.0593 20.2102 24.3044 20.3709 24.53C20.403 24.6041 20.4673 24.7169 20.4994 24.775ZM31.1387 27.2183H30.4637C29.0494 27.2183 27.8923 28.3692 27.8923 29.7875C27.8923 31.2058 29.0494 32.3566 30.4637 32.3566C31.878 32.3566 33.0352 31.2058 33.0352 29.7875C33.0352 29.7263 33.0352 29.665 33.003 29.607C33.0352 29.5458 33.0352 29.4877 33.0352 29.4232V23.405C33.0352 22.886 32.6173 22.4637 32.103 22.4637C31.5887 22.4637 31.1387 22.886 31.1387 23.405V27.2183ZM31.1387 29.0977H30.4637C30.078 29.0977 29.7887 29.4071 29.7887 29.7875C29.7887 30.1679 30.078 30.4773 30.4637 30.4773C30.8494 30.4773 31.1387 30.1679 31.1387 29.7875C31.1387 29.7263 31.1709 29.665 31.1709 29.607C31.1709 29.5458 31.1387 29.4877 31.1387 29.4232V29.0977Z" fill="white" fill-opacity="0.5"/>
</svg>
