<svg width="48" height="48" viewBox="0 0 48 48" fill="none" xmlns="http://www.w3.org/2000/svg">
<path fill-rule="evenodd" clip-rule="evenodd" d="M23.7988 14.5641C18.8291 14.5641 14.7988 18.5962 14.7988 23.5626C14.7988 28.5321 18.8291 32.5641 23.7988 32.5641C28.7685 32.5641 32.7988 28.5321 32.7988 23.5626C32.7988 18.5962 28.7685 14.5641 23.7988 14.5641ZM23.7988 16.3359C27.7988 16.3359 31.011 19.5731 31.011 23.5626C31.011 27.5552 27.7988 30.7924 23.7988 30.7924C19.7988 30.7924 16.5867 27.5552 16.5867 23.5626C16.5867 19.5731 19.7988 16.3359 23.7988 16.3359ZM23.7988 20.2011C21.9503 20.2011 20.4352 21.7089 20.4352 23.5626C20.4352 25.4193 21.9503 26.9272 23.7988 26.9272C25.6473 26.9272 27.1625 25.4193 27.1625 23.5626C27.1625 21.7089 25.6473 20.2011 23.7988 20.2011ZM23.7988 21.9698C24.6776 21.9698 25.4049 22.6858 25.4049 23.5626C25.4049 24.4424 24.6776 25.1585 23.7988 25.1585C22.92 25.1585 22.1928 24.4424 22.1928 23.5626C22.1928 22.6858 22.92 21.9698 23.7988 21.9698Z" fill="white" fill-opacity="0.5"/>
</svg>
