<svg width="48" height="48" viewBox="0 0 48 48" fill="none" xmlns="http://www.w3.org/2000/svg">
<path fill-rule="evenodd" clip-rule="evenodd" d="M14.8786 22.9777C14.7774 23.6863 14.7834 24.4099 14.8935 25.1245C15.0601 26.2189 15.7059 27.1747 16.6521 27.7325C19.2439 29.2612 25.3825 32.8824 25.3825 32.8824C25.6533 33.0392 25.9837 33.0392 26.2545 32.8824C26.5223 32.7256 26.689 32.4361 26.689 32.1226V15.8801C26.689 15.5665 26.5223 15.274 26.2545 15.1172C25.9837 14.9604 25.6533 14.9604 25.3825 15.1202C25.3825 15.1202 19.2439 18.7384 16.6521 20.2671C15.7059 20.8249 15.0601 21.7837 14.8935 22.8782L14.8786 22.9777ZM28.1173 17.46C28.1173 17.4268 28.1322 17.3937 28.1619 17.3756C28.1887 17.3545 28.2242 17.3514 28.254 17.3635C30.9142 18.3645 32.8066 20.9605 32.8066 23.9998C32.8066 27.0421 30.9142 29.6351 28.254 30.6391C28.2242 30.6512 28.1887 30.6452 28.1619 30.6271C28.1351 30.606 28.1173 30.5758 28.1173 30.5426C28.1173 30.1748 28.1173 29.2311 28.1173 28.9024C28.1173 28.8331 28.1559 28.7668 28.2184 28.7366C29.9115 27.8532 31.072 26.0621 31.072 23.9998C31.072 21.9374 29.9115 20.1495 28.2184 19.266C28.1559 19.2329 28.1173 19.1696 28.1173 19.0972C28.1173 18.7685 28.1173 17.8248 28.1173 17.46ZM16.6075 23.1556V23.1495C16.6938 22.5797 17.0331 22.0792 17.5241 21.7897L24.951 17.4087C24.951 17.4087 24.951 28.5949 24.951 30.3587C24.951 30.407 24.9274 30.4522 24.8857 30.4763C24.8441 30.5004 24.7965 30.5004 24.7548 30.4763C22.7671 29.3034 19.3065 27.2652 17.5241 26.2129C17.0331 25.9235 16.6938 25.423 16.6075 24.8531C16.5212 24.2893 16.5212 23.7134 16.6075 23.1495V23.1556ZM28.1173 20.858C28.1173 20.8158 28.1411 20.7766 28.1768 20.7585C28.2155 20.7404 28.2601 20.7435 28.2928 20.7706C29.242 21.5183 29.855 22.6882 29.855 23.9998C29.855 25.3144 29.242 26.4813 28.2928 27.232C28.2601 27.2562 28.2155 27.2591 28.1768 27.2411C28.1411 27.223 28.1173 27.1838 28.1173 27.1446C28.1173 26.1315 28.1173 21.8711 28.1173 20.858ZM14.8786 22.9746L14.8907 22.8842C14.8877 22.9143 14.8816 22.9445 14.8786 22.9746L14.8431 23.2068L14.8786 22.9777V22.9746Z" fill="white" fill-opacity="0.5"/>
</svg>
