<svg width="160" height="24" viewBox="0 0 160 24" fill="none" xmlns="http://www.w3.org/2000/svg">
<rect opacity="0.2" width="160" height="24" rx="4" fill="white"/>
<rect x="12" y="4" width="16" height="16" rx="1" fill="white"/>
<path d="M24 11.3333H20.6667V8H19.3333V11.3333H16V12.6667H19.3333V16H20.6667V12.6667H24V11.3333Z" fill="black"/>
<path d="M40.824 16.18C43.212 16.18 44.436 14.596 44.76 13.288L43.212 12.82C42.984 13.612 42.276 14.56 40.824 14.56C39.456 14.56 38.184 13.564 38.184 11.752C38.184 9.82 39.528 8.908 40.8 8.908C42.276 8.908 42.936 9.808 43.14 10.624L44.7 10.132C44.364 8.752 43.152 7.312 40.8 7.312C38.52 7.312 36.468 9.04 36.468 11.752C36.468 14.464 38.448 16.18 40.824 16.18ZM49.5106 10.072C49.3906 10.06 49.2706 10.048 49.1386 10.048C48.6346 10.048 47.8186 10.192 47.4586 10.972V10.096H45.9106V16H47.5066V13.3C47.5066 12.028 48.2146 11.632 49.0306 11.632C49.1746 11.632 49.3306 11.644 49.5106 11.68V10.072ZM51.7387 12.376C51.7747 11.836 52.2307 11.212 53.0587 11.212C53.9707 11.212 54.3547 11.788 54.3787 12.376H51.7387ZM54.5347 13.912C54.3427 14.44 53.9347 14.812 53.1907 14.812C52.3987 14.812 51.7387 14.248 51.7027 13.468H55.9267C55.9267 13.444 55.9507 13.204 55.9507 12.976C55.9507 11.08 54.8587 9.916 53.0347 9.916C51.5227 9.916 50.1307 11.14 50.1307 13.024C50.1307 15.016 51.5587 16.18 53.1787 16.18C54.6307 16.18 55.5667 15.328 55.8667 14.308L54.5347 13.912ZM56.8475 14.392C56.8475 15.316 57.6155 16.168 58.8755 16.168C59.7515 16.168 60.3155 15.76 60.6155 15.292C60.6155 15.52 60.6395 15.844 60.6755 16H62.1395C62.1035 15.796 62.0675 15.376 62.0675 15.064V12.16C62.0675 10.972 61.3715 9.916 59.4995 9.916C57.9155 9.916 57.0635 10.936 56.9675 11.86L58.3835 12.16C58.4315 11.644 58.8155 11.2 59.5115 11.2C60.1835 11.2 60.5075 11.548 60.5075 11.968C60.5075 12.172 60.3995 12.34 60.0635 12.388L58.6115 12.604C57.6275 12.748 56.8475 13.336 56.8475 14.392ZM59.2115 14.98C58.6955 14.98 58.4435 14.644 58.4435 14.296C58.4435 13.84 58.7675 13.612 59.1755 13.552L60.5075 13.348V13.612C60.5075 14.656 59.8835 14.98 59.2115 14.98ZM65.6091 8.332H64.1691V9.16C64.1691 9.688 63.8811 10.096 63.2571 10.096H62.9571V11.512H64.0251V14.26C64.0251 15.4 64.7451 16.084 65.8971 16.084C66.3651 16.084 66.6531 16 66.7971 15.94V14.62C66.7131 14.644 66.4971 14.668 66.3051 14.668C65.8491 14.668 65.6091 14.5 65.6091 13.984V11.512H66.7971V10.096H65.6091V8.332ZM69.2582 12.376C69.2942 11.836 69.7502 11.212 70.5782 11.212C71.4902 11.212 71.8742 11.788 71.8982 12.376H69.2582ZM72.0542 13.912C71.8622 14.44 71.4542 14.812 70.7102 14.812C69.9182 14.812 69.2582 14.248 69.2222 13.468H73.4462C73.4462 13.444 73.4702 13.204 73.4702 12.976C73.4702 11.08 72.3782 9.916 70.5542 9.916C69.0422 9.916 67.6502 11.14 67.6502 13.024C67.6502 15.016 69.0782 16.18 70.6982 16.18C72.1502 16.18 73.0862 15.328 73.3862 14.308L72.0542 13.912ZM79.4798 11.368V8.932H80.7878C81.6158 8.932 82.1198 9.4 82.1198 10.156C82.1198 10.888 81.6158 11.368 80.7878 11.368H79.4798ZM80.9918 12.796C82.6718 12.796 83.7878 11.692 83.7878 10.144C83.7878 8.608 82.6718 7.492 80.9918 7.492H77.8118V16H79.4678V12.796H80.9918ZM86.4832 16V7.312H84.8872V16H86.4832ZM87.7967 14.392C87.7967 15.316 88.5647 16.168 89.8247 16.168C90.7007 16.168 91.2647 15.76 91.5647 15.292C91.5647 15.52 91.5887 15.844 91.6247 16H93.0887C93.0527 15.796 93.0167 15.376 93.0167 15.064V12.16C93.0167 10.972 92.3207 9.916 90.4487 9.916C88.8647 9.916 88.0127 10.936 87.9167 11.86L89.3327 12.16C89.3807 11.644 89.7647 11.2 90.4607 11.2C91.1327 11.2 91.4567 11.548 91.4567 11.968C91.4567 12.172 91.3487 12.34 91.0127 12.388L89.5607 12.604C88.5767 12.748 87.7967 13.336 87.7967 14.392ZM90.1607 14.98C89.6447 14.98 89.3927 14.644 89.3927 14.296C89.3927 13.84 89.7167 13.612 90.1247 13.552L91.4567 13.348V13.612C91.4567 14.656 90.8327 14.98 90.1607 14.98ZM96.5131 18.328L100.221 10.096H98.5171L97.0651 13.552L95.4931 10.096H93.7051L96.2131 15.256L94.8211 18.328H96.5131ZM102.784 16V7.312H101.188V16H102.784ZM106.089 16V10.096H104.493V16H106.089ZM104.301 8.164C104.301 8.692 104.745 9.136 105.285 9.136C105.837 9.136 106.269 8.692 106.269 8.164C106.269 7.612 105.837 7.168 105.285 7.168C104.745 7.168 104.301 7.612 104.301 8.164ZM107.293 14.356C107.365 15.028 107.977 16.18 109.753 16.18C111.301 16.18 112.045 15.196 112.045 14.236C112.045 13.372 111.457 12.664 110.293 12.424L109.453 12.244C109.129 12.184 108.913 12.004 108.913 11.716C108.913 11.38 109.249 11.128 109.669 11.128C110.341 11.128 110.593 11.572 110.641 11.92L111.973 11.62C111.901 10.984 111.337 9.916 109.657 9.916C108.385 9.916 107.449 10.792 107.449 11.848C107.449 12.676 107.965 13.36 109.105 13.612L109.885 13.792C110.341 13.888 110.521 14.104 110.521 14.368C110.521 14.68 110.269 14.956 109.741 14.956C109.045 14.956 108.697 14.524 108.661 14.056L107.293 14.356ZM115.297 8.332H113.857V9.16C113.857 9.688 113.569 10.096 112.945 10.096H112.645V11.512H113.713V14.26C113.713 15.4 114.433 16.084 115.585 16.084C116.053 16.084 116.341 16 116.485 15.94V14.62C116.401 14.644 116.185 14.668 115.993 14.668C115.537 14.668 115.297 14.5 115.297 13.984V11.512H116.485V10.096H115.297V8.332Z" fill="white"/>
</svg>
