<svg width="160" height="24" viewBox="0 0 160 24" fill="none" xmlns="http://www.w3.org/2000/svg">
<rect opacity="0.2" width="160" height="24" rx="4" fill="white"/>
<g clip-path="url(#clip0_128_3973)">
<path d="M24.3643 14.9974L27.7791 18.9997L26.6042 20.0002L23.1985 16.0071C22.097 16.7415 20.8822 17.1087 19.5542 17.1087C18.6668 17.1087 17.8177 16.9358 17.0069 16.59C16.196 16.2443 15.4984 15.7792 14.9139 15.1947C14.3295 14.6103 13.8644 13.9127 13.5186 13.1018C13.1729 12.2909 13 11.4418 13 10.5545C13 9.66711 13.1729 8.818 13.5186 8.00713C13.8644 7.19626 14.3295 6.49861 14.9139 5.91417C15.4983 5.32974 16.196 4.86464 17.0069 4.51888C17.8178 4.17312 18.6669 4.00024 19.5542 4.00024C20.4415 4.00024 21.2907 4.17312 22.1015 4.51888C22.9124 4.86464 23.6101 5.32974 24.1945 5.91417C24.7789 6.49861 25.244 7.19626 25.5898 8.00713C25.9356 8.818 26.1085 9.66711 26.1084 10.5545C26.1084 11.1175 26.0381 11.6682 25.8973 12.2068C25.7566 12.7453 25.5561 13.2471 25.296 13.7122C25.0359 14.1773 24.7254 14.6057 24.3643 14.9974H24.3643ZM19.5543 15.5665C20.2335 15.5665 20.8822 15.4333 21.5003 15.1671C22.1184 14.9009 22.6508 14.5444 23.0975 14.0977C23.5443 13.651 23.9007 13.1186 24.167 12.5005C24.4332 11.8824 24.5663 11.2337 24.5663 10.5544C24.5663 9.87514 24.4332 9.22646 24.167 8.60836C23.9007 7.99026 23.5443 7.45784 23.0975 7.01109C22.6508 6.56434 22.1184 6.20787 21.5003 5.94168C20.8822 5.67549 20.2335 5.54239 19.5543 5.54239C18.875 5.54239 18.2263 5.67549 17.6082 5.94168C16.9901 6.20787 16.4577 6.56436 16.0109 7.01113C15.5642 7.4579 15.2077 7.99031 14.9415 8.60836C14.6753 9.22641 14.5422 9.8751 14.5422 10.5544C14.5422 11.2337 14.6753 11.8824 14.9415 12.5005C15.2077 13.1185 15.5642 13.6509 16.011 14.0977C16.4577 14.5445 16.9901 14.901 17.6082 15.1671C18.2262 15.4333 18.8749 15.5664 19.5543 15.5665Z" fill="white"/>
</g>
<path d="M42.696 9.52C42.504 8.56 41.712 7.312 39.648 7.312C38.04 7.312 36.684 8.464 36.684 9.976C36.684 11.26 37.56 12.136 38.916 12.412L40.104 12.652C40.764 12.784 41.136 13.168 41.136 13.66C41.136 14.26 40.644 14.704 39.756 14.704C38.556 14.704 37.968 13.948 37.896 13.108L36.36 13.516C36.492 14.728 37.488 16.18 39.744 16.18C41.724 16.18 42.816 14.86 42.816 13.552C42.816 12.352 41.988 11.344 40.44 11.044L39.252 10.816C38.628 10.696 38.328 10.324 38.328 9.856C38.328 9.292 38.856 8.776 39.66 8.776C40.74 8.776 41.124 9.508 41.208 9.976L42.696 9.52ZM45.2113 12.376C45.2473 11.836 45.7033 11.212 46.5313 11.212C47.4433 11.212 47.8273 11.788 47.8513 12.376H45.2113ZM48.0073 13.912C47.8153 14.44 47.4073 14.812 46.6633 14.812C45.8713 14.812 45.2113 14.248 45.1753 13.468H49.3993C49.3993 13.444 49.4233 13.204 49.4233 12.976C49.4233 11.08 48.3313 9.916 46.5073 9.916C44.9953 9.916 43.6033 11.14 43.6033 13.024C43.6033 15.016 45.0313 16.18 46.6513 16.18C48.1033 16.18 49.0393 15.328 49.3393 14.308L48.0073 13.912ZM50.3201 14.392C50.3201 15.316 51.0881 16.168 52.3481 16.168C53.2241 16.168 53.7881 15.76 54.0881 15.292C54.0881 15.52 54.1121 15.844 54.1481 16H55.6121C55.5761 15.796 55.5401 15.376 55.5401 15.064V12.16C55.5401 10.972 54.8441 9.916 52.9721 9.916C51.3881 9.916 50.5361 10.936 50.4401 11.86L51.8561 12.16C51.9041 11.644 52.2881 11.2 52.9841 11.2C53.6561 11.2 53.9801 11.548 53.9801 11.968C53.9801 12.172 53.8721 12.34 53.5361 12.388L52.0841 12.604C51.1001 12.748 50.3201 13.336 50.3201 14.392ZM52.6841 14.98C52.1681 14.98 51.9161 14.644 51.9161 14.296C51.9161 13.84 52.2401 13.612 52.6481 13.552L53.9801 13.348V13.612C53.9801 14.656 53.3561 14.98 52.6841 14.98ZM60.7489 10.072C60.6289 10.06 60.5089 10.048 60.3769 10.048C59.8729 10.048 59.0569 10.192 58.6969 10.972V10.096H57.1489V16H58.7449V13.3C58.7449 12.028 59.4529 11.632 60.2689 11.632C60.4129 11.632 60.5689 11.644 60.7489 11.68V10.072ZM64.4649 11.392C65.2569 11.392 65.6289 11.896 65.7729 12.388L67.2009 11.908C66.9489 10.912 66.0369 9.916 64.4289 9.916C62.7129 9.916 61.3689 11.224 61.3689 13.048C61.3689 14.86 62.7369 16.18 64.4769 16.18C66.0489 16.18 66.9729 15.172 67.2369 14.188L65.8329 13.72C65.7009 14.176 65.2929 14.716 64.4769 14.716C63.6609 14.716 62.9649 14.116 62.9649 13.048C62.9649 11.98 63.6489 11.392 64.4649 11.392ZM70.0066 12.532C70.0426 11.884 70.4386 11.38 71.1106 11.38C71.8786 11.38 72.2026 11.896 72.2026 12.556V16H73.7986V12.28C73.7986 10.984 73.1026 9.94 71.6026 9.94C71.0386 9.94 70.3906 10.132 70.0066 10.588V7.312H68.4106V16H70.0066V12.532Z" fill="white"/>
<defs>
<clipPath id="clip0_128_3973">
<rect width="16" height="16" fill="white" transform="translate(12 4)"/>
</clipPath>
</defs>
</svg>
