<svg width="160" height="24" viewBox="0 0 160 24" fill="none" xmlns="http://www.w3.org/2000/svg">
<rect opacity="0.2" width="160" height="24" rx="4" fill="white"/>
<rect x="12" y="4" width="16" height="16" rx="1" fill="url(#paint0_linear_128_3971)"/>
<path d="M23.3159 9.6576C22.9061 9.26209 22.356 9.02834 21.7745 9.00269C21.1931 8.97705 20.6228 9.16139 20.1767 9.51915C20.1254 9.5562 20.0636 9.57756 19.9994 9.58044C19.9348 9.57864 19.8725 9.55717 19.8215 9.51915C19.3757 9.16118 18.8054 8.97671 18.224 9.00236C17.6426 9.028 17.0925 9.2619 16.683 9.6576C16.2425 10.079 16 10.6393 16 11.2352C16 11.8312 16.2425 12.3915 16.6681 12.7976L19.2204 15.6557C19.3165 15.7637 19.4361 15.8503 19.5707 15.9098C19.7053 15.9692 19.8517 16 20 16C20.1482 16 20.2947 15.9692 20.4293 15.9098C20.5639 15.8503 20.6835 15.7637 20.7796 15.6557L23.3165 12.8129C23.5337 12.6062 23.706 12.3603 23.8234 12.0896C23.9407 11.8188 24.0007 11.5284 24 11.2352C24.0005 10.9421 23.9403 10.6517 23.8229 10.381C23.7055 10.1102 23.5331 9.86433 23.3159 9.6576Z" fill="white"/>
<path d="M42.42 16V14.416H38.628V7.492H36.972V16H42.42ZM45.1628 16V10.096H43.5668V16H45.1628ZM43.3748 8.164C43.3748 8.692 43.8188 9.136 44.3588 9.136C44.9108 9.136 45.3428 8.692 45.3428 8.164C45.3428 7.612 44.9108 7.168 44.3588 7.168C43.8188 7.168 43.3748 7.612 43.3748 8.164ZM52.5955 10.096H50.5075L48.4675 12.292V7.312H46.8715V16H48.4675V14.44L49.1275 13.744L50.6875 16H52.6435L50.2315 12.58L52.5955 10.096ZM54.4691 12.376C54.5051 11.836 54.9611 11.212 55.7891 11.212C56.7011 11.212 57.0851 11.788 57.1091 12.376H54.4691ZM57.2651 13.912C57.0731 14.44 56.6651 14.812 55.9211 14.812C55.1291 14.812 54.4691 14.248 54.4331 13.468H58.6571C58.6571 13.444 58.6811 13.204 58.6811 12.976C58.6811 11.08 57.5891 9.916 55.7651 9.916C54.2531 9.916 52.8611 11.14 52.8611 13.024C52.8611 15.016 54.2891 16.18 55.9091 16.18C57.3611 16.18 58.2971 15.328 58.5971 14.308L57.2651 13.912ZM65.5659 7.312H63.9939V10.684C63.8259 10.372 63.3459 9.952 62.3259 9.952C60.6579 9.952 59.4939 11.308 59.4939 13.036C59.4939 14.824 60.6939 16.144 62.3739 16.144C63.1659 16.144 63.7659 15.784 64.0299 15.316C64.0299 15.592 64.0659 15.88 64.0899 16H65.6139C65.5899 15.76 65.5659 15.328 65.5659 14.932V7.312ZM61.1019 13.036C61.1019 11.98 61.7499 11.38 62.5659 11.38C63.3819 11.38 64.0179 11.968 64.0179 13.024C64.0179 14.092 63.3819 14.716 62.5659 14.716C61.7259 14.716 61.1019 14.092 61.1019 13.036ZM76.1062 9.52C75.9142 8.56 75.1222 7.312 73.0582 7.312C71.4502 7.312 70.0942 8.464 70.0942 9.976C70.0942 11.26 70.9702 12.136 72.3262 12.412L73.5142 12.652C74.1742 12.784 74.5462 13.168 74.5462 13.66C74.5462 14.26 74.0542 14.704 73.1662 14.704C71.9662 14.704 71.3782 13.948 71.3062 13.108L69.7702 13.516C69.9022 14.728 70.8982 16.18 73.1542 16.18C75.1342 16.18 76.2262 14.86 76.2262 13.552C76.2262 12.352 75.3982 11.344 73.8502 11.044L72.6622 10.816C72.0382 10.696 71.7382 10.324 71.7382 9.856C71.7382 9.292 72.2662 8.776 73.0702 8.776C74.1502 8.776 74.5342 9.508 74.6182 9.976L76.1062 9.52ZM80.1095 14.728C79.3295 14.728 78.6095 14.152 78.6095 13.048C78.6095 11.932 79.3295 11.368 80.1095 11.368C80.8895 11.368 81.6095 11.932 81.6095 13.048C81.6095 14.164 80.8895 14.728 80.1095 14.728ZM80.1095 9.916C78.3455 9.916 77.0135 11.224 77.0135 13.048C77.0135 14.86 78.3455 16.18 80.1095 16.18C81.8735 16.18 83.2055 14.86 83.2055 13.048C83.2055 11.224 81.8735 9.916 80.1095 9.916ZM86.0613 12.604C86.0613 11.92 86.4693 11.38 87.1653 11.38C87.9333 11.38 88.2573 11.896 88.2573 12.556V16H89.8533V12.28C89.8533 10.984 89.1813 9.94 87.7173 9.94C87.0813 9.94 86.3733 10.216 86.0133 10.828V10.096H84.4653V16H86.0613V12.604ZM91.0531 16.324C91.2211 17.452 92.3011 18.46 93.9211 18.46C96.1411 18.46 97.0171 16.984 97.0171 15.364V10.096H95.4811V10.792C95.2771 10.396 94.7371 9.988 93.8011 9.988C92.1811 9.988 91.0531 11.308 91.0531 12.868C91.0531 14.524 92.2291 15.736 93.8011 15.736C94.6531 15.736 95.2051 15.364 95.4451 14.98V15.412C95.4451 16.552 94.8811 17.056 93.8731 17.056C93.1171 17.056 92.6011 16.588 92.4931 15.94L91.0531 16.324ZM94.0771 14.368C93.2491 14.368 92.6611 13.792 92.6611 12.868C92.6611 11.956 93.2851 11.38 94.0771 11.38C94.8451 11.38 95.4691 11.956 95.4691 12.868C95.4691 13.78 94.8931 14.368 94.0771 14.368ZM98.1293 14.356C98.2013 15.028 98.8133 16.18 100.589 16.18C102.137 16.18 102.881 15.196 102.881 14.236C102.881 13.372 102.293 12.664 101.129 12.424L100.289 12.244C99.9653 12.184 99.7493 12.004 99.7493 11.716C99.7493 11.38 100.085 11.128 100.505 11.128C101.177 11.128 101.429 11.572 101.477 11.92L102.809 11.62C102.737 10.984 102.173 9.916 100.493 9.916C99.2213 9.916 98.2853 10.792 98.2853 11.848C98.2853 12.676 98.8013 13.36 99.9413 13.612L100.721 13.792C101.177 13.888 101.357 14.104 101.357 14.368C101.357 14.68 101.105 14.956 100.577 14.956C99.8813 14.956 99.5333 14.524 99.4973 14.056L98.1293 14.356Z" fill="white"/>
<defs>
<linearGradient id="paint0_linear_128_3971" x1="12" y1="4" x2="28" y2="20" gradientUnits="userSpaceOnUse">
<stop stop-color="#2D1CA3"/>
<stop offset="1" stop-color="#899C99"/>
</linearGradient>
</defs>
</svg>
