<svg width="160" height="24" viewBox="0 0 160 24" fill="none" xmlns="http://www.w3.org/2000/svg">
<rect opacity="0.2" width="160" height="24" rx="4" fill="white"/>
<g clip-path="url(#clip0_128_3974)">
<path d="M21.5745 5.00024L28 19.3375L26.4893 20.0002L20.0638 5.66302L21.5745 5.00024ZM12 19.8248V5.08797H13.648V19.8248H12ZM16.1202 19.8248V5.08797H17.7683V19.8248H16.1202H16.1202Z" fill="white"/>
</g>
<path d="M39.084 12.424V16H40.74V12.424L43.74 7.492H41.88L39.972 10.864L38.064 7.492H36.12L39.084 12.424ZM46.1837 14.728C45.4037 14.728 44.6837 14.152 44.6837 13.048C44.6837 11.932 45.4037 11.368 46.1837 11.368C46.9637 11.368 47.6837 11.932 47.6837 13.048C47.6837 14.164 46.9637 14.728 46.1837 14.728ZM46.1837 9.916C44.4197 9.916 43.0877 11.224 43.0877 13.048C43.0877 14.86 44.4197 16.18 46.1837 16.18C47.9477 16.18 49.2797 14.86 49.2797 13.048C49.2797 11.224 47.9477 9.916 46.1837 9.916ZM54.3801 16H55.9041C55.8801 15.796 55.8441 15.388 55.8441 14.932V10.096H54.2481V13.528C54.2481 14.212 53.8401 14.692 53.1321 14.692C52.3881 14.692 52.0521 14.164 52.0521 13.504V10.096H50.4561V13.828C50.4561 15.112 51.2721 16.156 52.7001 16.156C53.3241 16.156 54.0081 15.916 54.3321 15.364C54.3321 15.604 54.3561 15.88 54.3801 16ZM61.1473 10.072C61.0273 10.06 60.9073 10.048 60.7753 10.048C60.2713 10.048 59.4553 10.192 59.0953 10.972V10.096H57.5473V16H59.1433V13.3C59.1433 12.028 59.8513 11.632 60.6673 11.632C60.8113 11.632 60.9673 11.644 61.1473 11.68V10.072ZM70.7677 16V14.416H66.9757V7.492H65.3197V16H70.7677ZM73.5105 16V10.096H71.9145V16H73.5105ZM71.7225 8.164C71.7225 8.692 72.1665 9.136 72.7065 9.136C73.2585 9.136 73.6905 8.692 73.6905 8.164C73.6905 7.612 73.2585 7.168 72.7065 7.168C72.1665 7.168 71.7225 7.612 71.7225 8.164ZM76.7672 16V15.28C77.0792 15.784 77.7032 16.144 78.5192 16.144C80.1992 16.144 81.3032 14.812 81.3032 13.024C81.3032 11.272 80.3072 9.94 78.5792 9.94C77.7032 9.94 77.0552 10.324 76.7912 10.744V7.312H75.2192V16H76.7672ZM79.7072 13.036C79.7072 14.116 79.0592 14.716 78.2432 14.716C77.4392 14.716 76.7672 14.104 76.7672 13.036C76.7672 11.956 77.4392 11.368 78.2432 11.368C79.0592 11.368 79.7072 11.956 79.7072 13.036ZM86.1668 10.072C86.0468 10.06 85.9268 10.048 85.7948 10.048C85.2908 10.048 84.4748 10.192 84.1148 10.972V10.096H82.5668V16H84.1628V13.3C84.1628 12.028 84.8708 11.632 85.6868 11.632C85.8308 11.632 85.9868 11.644 86.1668 11.68V10.072ZM86.9647 14.392C86.9647 15.316 87.7327 16.168 88.9927 16.168C89.8687 16.168 90.4327 15.76 90.7327 15.292C90.7327 15.52 90.7567 15.844 90.7927 16H92.2567C92.2207 15.796 92.1847 15.376 92.1847 15.064V12.16C92.1847 10.972 91.4887 9.916 89.6167 9.916C88.0327 9.916 87.1807 10.936 87.0847 11.86L88.5007 12.16C88.5487 11.644 88.9327 11.2 89.6287 11.2C90.3007 11.2 90.6247 11.548 90.6247 11.968C90.6247 12.172 90.5167 12.34 90.1807 12.388L88.7287 12.604C87.7447 12.748 86.9647 13.336 86.9647 14.392ZM89.3287 14.98C88.8127 14.98 88.5607 14.644 88.5607 14.296C88.5607 13.84 88.8847 13.612 89.2927 13.552L90.6247 13.348V13.612C90.6247 14.656 90.0007 14.98 89.3287 14.98ZM97.3934 10.072C97.2734 10.06 97.1534 10.048 97.0214 10.048C96.5174 10.048 95.7014 10.192 95.3414 10.972V10.096H93.7934V16H95.3894V13.3C95.3894 12.028 96.0974 11.632 96.9134 11.632C97.0574 11.632 97.2134 11.644 97.3934 11.68V10.072ZM100.814 18.328L104.522 10.096H102.818L101.366 13.552L99.7939 10.096H98.0059L100.514 15.256L99.1219 18.328H100.814Z" fill="white"/>
<defs>
<clipPath id="clip0_128_3974">
<rect width="16" height="16" fill="white" transform="translate(12 4)"/>
</clipPath>
</defs>
</svg>
