<svg width="160" height="24" viewBox="0 0 160 24" fill="none" xmlns="http://www.w3.org/2000/svg">
<rect opacity="0.2" width="160" height="24" rx="4" fill="white"/>
<g clip-path="url(#clip0_128_3972)">
<path d="M27.4 20H21.8V14.4067H18.6V20H13V8.1855L20.2 4L27.4 8.15696V20Z" fill="white"/>
</g>
<path d="M44.004 16V7.492H42.336V10.912H38.628V7.492H36.972V16H38.628V12.472H42.336V16H44.004ZM48.4454 14.728C47.6654 14.728 46.9454 14.152 46.9454 13.048C46.9454 11.932 47.6654 11.368 48.4454 11.368C49.2254 11.368 49.9454 11.932 49.9454 13.048C49.9454 14.164 49.2254 14.728 48.4454 14.728ZM48.4454 9.916C46.6814 9.916 45.3494 11.224 45.3494 13.048C45.3494 14.86 46.6814 16.18 48.4454 16.18C50.2094 16.18 51.5414 14.86 51.5414 13.048C51.5414 11.224 50.2094 9.916 48.4454 9.916ZM54.3972 16V12.544C54.3972 11.896 54.8052 11.38 55.5012 11.38C56.2212 11.38 56.5452 11.86 56.5452 12.496V16H58.1292V12.544C58.1292 11.908 58.5372 11.38 59.2212 11.38C59.9532 11.38 60.2652 11.86 60.2652 12.496V16H61.8132V12.172C61.8132 10.588 60.7692 9.928 59.6772 9.928C58.8972 9.928 58.2732 10.192 57.8052 10.912C57.5052 10.276 56.8572 9.928 56.0532 9.928C55.4052 9.928 54.6492 10.24 54.3252 10.816V10.096H52.8012V16H54.3972ZM64.5941 12.376C64.6301 11.836 65.0861 11.212 65.9141 11.212C66.8261 11.212 67.2101 11.788 67.2341 12.376H64.5941ZM67.3901 13.912C67.1981 14.44 66.7901 14.812 66.0461 14.812C65.2541 14.812 64.5941 14.248 64.5581 13.468H68.7821C68.7821 13.444 68.8061 13.204 68.8061 12.976C68.8061 11.08 67.7141 9.916 65.8901 9.916C64.3781 9.916 62.9861 11.14 62.9861 13.024C62.9861 15.016 64.4141 16.18 66.0341 16.18C67.4861 16.18 68.4221 15.328 68.7221 14.308L67.3901 13.912Z" fill="white"/>
<defs>
<clipPath id="clip0_128_3972">
<rect width="16" height="16" fill="white" transform="translate(12 4)"/>
</clipPath>
</defs>
</svg>
