<svg width="24" height="27" viewBox="0 0 24 27" fill="none" xmlns="http://www.w3.org/2000/svg">
<g clip-path="url(#clip0_3_481)">
<path d="M12 15.3401C11.2044 15.3401 10.4413 15.683 9.87868 16.2932C9.31607 16.9035 9 17.7312 9 18.5942V26.2153H15V18.5942C15 17.7312 14.6839 16.9035 14.1213 16.2932C13.5587 15.683 12.7956 15.3401 12 15.3401Z" fill="white"/>
<path d="M13.338 1.05837C12.9707 0.699807 12.4941 0.501404 12 0.501404C11.5059 0.501404 11.0293 0.699807 10.662 1.05837L0 11.4671V22.748C0 23.6685 0.337142 24.5514 0.937258 25.2023C1.53737 25.8533 2.35131 26.219 3.2 26.219H7V18.5947C7 17.1563 7.52678 15.7768 8.46447 14.7597C9.40215 13.7426 10.6739 13.1712 12 13.1712C13.3261 13.1712 14.5979 13.7426 15.5355 14.7597C16.4732 15.7768 17 17.1563 17 18.5947V26.2157H20.8C21.6487 26.2157 22.4626 25.85 23.0627 25.1991C23.6629 24.5481 24 23.6653 24 22.7447V11.4639L13.338 1.05837Z" fill="white"/>
</g>
<defs>
<clipPath id="clip0_3_481">
<rect width="24" height="26.0327" fill="white" transform="translate(0 0.154724)"/>
</clipPath>
</defs>
</svg>
