<svg width="145" height="27" viewBox="0 0 145 27" fill="none" xmlns="http://www.w3.org/2000/svg">
<path d="M50.731 19.2805V14.5495L46.266 5.98052H49.021L51.966 12.1175L54.892 5.98052H57.609L53.163 14.5495V19.2805H50.731ZM60.8035 19.5085C59.8915 19.5085 59.0682 19.2995 58.3335 18.8815C57.6115 18.4635 57.0352 17.8872 56.6045 17.1525C56.1865 16.4052 55.9775 15.5439 55.9775 14.5685C55.9775 13.5932 56.1929 12.7382 56.6235 12.0035C57.0542 11.2562 57.6305 10.6735 58.3525 10.2555C59.0872 9.83752 59.9105 9.62852 60.8225 9.62852C61.7219 9.62852 62.5325 9.83752 63.2545 10.2555C63.9892 10.6735 64.5655 11.2562 64.9835 12.0035C65.4142 12.7382 65.6295 13.5932 65.6295 14.5685C65.6295 15.5439 65.4142 16.4052 64.9835 17.1525C64.5655 17.8872 63.9892 18.4635 63.2545 18.8815C62.5199 19.2995 61.7029 19.5085 60.8035 19.5085ZM60.8035 17.3995C61.4369 17.3995 61.9879 17.1652 62.4565 16.6965C62.9252 16.2152 63.1595 15.5059 63.1595 14.5685C63.1595 13.6312 62.9252 12.9282 62.4565 12.4595C61.9879 11.9782 61.4432 11.7375 60.8225 11.7375C60.1765 11.7375 59.6192 11.9782 59.1505 12.4595C58.6945 12.9282 58.4665 13.6312 58.4665 14.5685C58.4665 15.5059 58.6945 16.2152 59.1505 16.6965C59.6192 17.1652 60.1702 17.3995 60.8035 17.3995ZM70.198 19.5085C69.02 19.5085 68.108 19.1412 67.462 18.4065C66.8287 17.6719 66.512 16.5952 66.512 15.1765V9.85652H68.925V14.9485C68.925 15.7592 69.0897 16.3799 69.419 16.8105C69.7483 17.2412 70.2677 17.4565 70.977 17.4565C71.6483 17.4565 72.1993 17.2159 72.63 16.7345C73.0733 16.2532 73.295 15.5819 73.295 14.7205V9.85652H75.727V19.2805H73.58L73.39 17.6845C73.0987 18.2419 72.6743 18.6852 72.117 19.0145C71.5723 19.3439 70.9327 19.5085 70.198 19.5085ZM77.0836 19.2805V9.85652H79.2496L79.4776 11.6235C79.8196 11.0155 80.2819 10.5342 80.8646 10.1795C81.4599 9.81218 82.1566 9.62852 82.9546 9.62852V12.1935H82.2706C81.7386 12.1935 81.2636 12.2759 80.8456 12.4405C80.4276 12.6052 80.0982 12.8902 79.8576 13.2955C79.6296 13.7009 79.5156 14.2645 79.5156 14.9865V19.2805H77.0836ZM86.9211 19.2805V5.98052H89.3531V17.3805H95.2431V19.2805H86.9211ZM97.4999 8.39352C97.0566 8.39352 96.6893 8.26052 96.3979 7.99452C96.1193 7.72852 95.9799 7.39285 95.9799 6.98752C95.9799 6.58218 96.1193 6.25285 96.3979 5.99952C96.6893 5.73352 97.0566 5.60052 97.4999 5.60052C97.9433 5.60052 98.3043 5.73352 98.5829 5.99952C98.8743 6.25285 99.0199 6.58218 99.0199 6.98752C99.0199 7.39285 98.8743 7.72852 98.5829 7.99452C98.3043 8.26052 97.9433 8.39352 97.4999 8.39352ZM96.2839 19.2805V9.85652H98.7159V19.2805H96.2839ZM105.7 19.5085C104.991 19.5085 104.37 19.3755 103.838 19.1095C103.306 18.8435 102.876 18.4699 102.546 17.9885L102.28 19.2805H100.114V5.60052H102.546V11.2055C102.85 10.7875 103.249 10.4202 103.743 10.1035C104.25 9.78685 104.902 9.62852 105.7 9.62852C106.587 9.62852 107.379 9.84385 108.075 10.2745C108.772 10.7052 109.323 11.2942 109.728 12.0415C110.134 12.7889 110.336 13.6375 110.336 14.5875C110.336 15.5375 110.134 16.3862 109.728 17.1335C109.323 17.8682 108.772 18.4509 108.075 18.8815C107.379 19.2995 106.587 19.5085 105.7 19.5085ZM105.187 17.3805C105.96 17.3805 106.6 17.1209 107.106 16.6015C107.613 16.0822 107.866 15.4109 107.866 14.5875C107.866 13.7642 107.613 13.0865 107.106 12.5545C106.6 12.0225 105.96 11.7565 105.187 11.7565C104.402 11.7565 103.756 12.0225 103.249 12.5545C102.755 13.0739 102.508 13.7452 102.508 14.5685C102.508 15.3919 102.755 16.0695 103.249 16.6015C103.756 17.1209 104.402 17.3805 105.187 17.3805ZM111.369 19.2805V9.85652H113.535L113.763 11.6235C114.105 11.0155 114.567 10.5342 115.15 10.1795C115.745 9.81218 116.442 9.62852 117.24 9.62852V12.1935H116.556C116.024 12.1935 115.549 12.2759 115.131 12.4405C114.713 12.6052 114.384 12.8902 114.143 13.2955C113.915 13.7009 113.801 14.2645 113.801 14.9865V19.2805H111.369ZM121.011 19.5085C120.2 19.5085 119.535 19.3819 119.016 19.1285C118.497 18.8625 118.11 18.5142 117.857 18.0835C117.604 17.6529 117.477 17.1779 117.477 16.6585C117.477 15.7845 117.819 15.0752 118.503 14.5305C119.187 13.9859 120.213 13.7135 121.581 13.7135H123.975V13.4855C123.975 12.8395 123.791 12.3645 123.424 12.0605C123.057 11.7565 122.601 11.6045 122.056 11.6045C121.562 11.6045 121.131 11.7249 120.764 11.9655C120.397 12.1935 120.169 12.5355 120.08 12.9915H117.705C117.768 12.3075 117.996 11.7122 118.389 11.2055C118.794 10.6989 119.314 10.3125 119.947 10.0465C120.58 9.76785 121.29 9.62852 122.075 9.62852C123.418 9.62852 124.475 9.96418 125.248 10.6355C126.021 11.3069 126.407 12.2569 126.407 13.4855V19.2805H124.336L124.108 17.7605C123.829 18.2672 123.437 18.6852 122.93 19.0145C122.436 19.3439 121.796 19.5085 121.011 19.5085ZM121.562 17.6085C122.259 17.6085 122.797 17.3805 123.177 16.9245C123.57 16.4685 123.817 15.9049 123.918 15.2335H121.847C121.201 15.2335 120.739 15.3539 120.46 15.5945C120.181 15.8225 120.042 16.1075 120.042 16.4495C120.042 16.8169 120.181 17.1019 120.46 17.3045C120.739 17.5072 121.106 17.6085 121.562 17.6085ZM127.588 19.2805V9.85652H129.754L129.982 11.6235C130.324 11.0155 130.786 10.5342 131.369 10.1795C131.964 9.81218 132.661 9.62852 133.459 9.62852V12.1935H132.775C132.243 12.1935 131.768 12.2759 131.35 12.4405C130.932 12.6052 130.603 12.8902 130.362 13.2955C130.134 13.7009 130.02 14.2645 130.02 14.9865V19.2805H127.588ZM135.159 23.4605L137.344 18.6535H136.774L133.107 9.85652H135.748L138.389 16.4875L141.144 9.85652H143.728L137.743 23.4605H135.159Z" fill="white"/>
<rect y="3.2843" width="1" height="23.0289" fill="white"/>
<rect x="7" y="3.2843" width="1" height="23.0289" fill="white"/>
<rect width="1.0002" height="23.7469" transform="matrix(0.91594 -0.401316 0.40047 0.91631 12 3.68567)" fill="white"/>
</svg>
