<svg width="106" height="26" viewBox="0 0 106 26" fill="none" xmlns="http://www.w3.org/2000/svg">
<path d="M52.833 19.4456C51.8577 19.4456 50.9963 19.2809 50.249 18.9516C49.5017 18.6096 48.9127 18.1283 48.482 17.5076C48.0513 16.8743 47.8297 16.1079 47.817 15.2086H50.382C50.4073 15.8293 50.629 16.3549 51.047 16.7856C51.4777 17.2036 52.0667 17.4126 52.814 17.4126C53.46 17.4126 53.973 17.2606 54.353 16.9566C54.733 16.6399 54.923 16.2219 54.923 15.7026C54.923 15.1579 54.752 14.7336 54.41 14.4296C54.0807 14.1256 53.6373 13.8786 53.08 13.6886C52.5227 13.4986 51.9273 13.2959 51.294 13.0806C50.268 12.7259 49.4827 12.2699 48.938 11.7126C48.406 11.1553 48.14 10.4143 48.14 9.48959C48.1273 8.70426 48.311 8.03292 48.691 7.47559C49.0837 6.90559 49.6157 6.46859 50.287 6.16459C50.9583 5.84792 51.731 5.68959 52.605 5.68959C53.4917 5.68959 54.2707 5.84792 54.942 6.16459C55.626 6.48126 56.158 6.92459 56.538 7.49459C56.9307 8.06459 57.1397 8.74226 57.165 9.52759H54.562C54.5493 9.05892 54.3657 8.64726 54.011 8.29259C53.669 7.92526 53.1877 7.74159 52.567 7.74159C52.035 7.72892 51.5853 7.86192 51.218 8.14059C50.8633 8.40659 50.686 8.79926 50.686 9.31859C50.686 9.76192 50.8253 10.1166 51.104 10.3826C51.3827 10.6359 51.7627 10.8513 52.244 11.0286C52.7253 11.2059 53.2763 11.3959 53.897 11.5986C54.5557 11.8266 55.1573 12.0926 55.702 12.3966C56.2467 12.7006 56.6837 13.1059 57.013 13.6126C57.3423 14.1066 57.507 14.7463 57.507 15.5316C57.507 16.2283 57.3297 16.8743 56.975 17.4696C56.6203 18.0649 56.0947 18.5463 55.398 18.9136C54.7013 19.2683 53.8463 19.4456 52.833 19.4456ZM63.0109 19.4456C62.0609 19.4456 61.2186 19.2429 60.4839 18.8376C59.7492 18.4323 59.1729 17.8623 58.7549 17.1276C58.3369 16.3929 58.1279 15.5443 58.1279 14.5816C58.1279 13.6063 58.3306 12.7386 58.7359 11.9786C59.1539 11.2186 59.7239 10.6296 60.4459 10.2116C61.1806 9.78092 62.0419 9.56559 63.0299 9.56559C63.9546 9.56559 64.7716 9.76826 65.4809 10.1736C66.1902 10.5789 66.7412 11.1363 67.1339 11.8456C67.5392 12.5423 67.7419 13.3213 67.7419 14.1826C67.7419 14.3219 67.7356 14.4676 67.7229 14.6196C67.7229 14.7716 67.7166 14.9299 67.7039 15.0946H60.5409C60.5916 15.8293 60.8449 16.4056 61.3009 16.8236C61.7696 17.2416 62.3332 17.4506 62.9919 17.4506C63.4859 17.4506 63.8976 17.3429 64.2269 17.1276C64.5689 16.8996 64.8222 16.6083 64.9869 16.2536H67.4569C67.2796 16.8489 66.9819 17.3936 66.5639 17.8876C66.1586 18.3689 65.6519 18.7489 65.0439 19.0276C64.4486 19.3063 63.7709 19.4456 63.0109 19.4456ZM63.0299 11.5416C62.4346 11.5416 61.9089 11.7126 61.4529 12.0546C60.9969 12.3839 60.7056 12.8906 60.5789 13.5746H65.2719C65.2339 12.9539 65.0059 12.4599 64.5879 12.0926C64.1699 11.7253 63.6506 11.5416 63.0299 11.5416ZM71.8964 19.4456C71.0857 19.4456 70.4207 19.3189 69.9014 19.0656C69.382 18.7996 68.9957 18.4513 68.7424 18.0206C68.489 17.5899 68.3624 17.1149 68.3624 16.5956C68.3624 15.7216 68.7044 15.0123 69.3884 14.4676C70.0724 13.9229 71.0984 13.6506 72.4664 13.6506H74.8604V13.4226C74.8604 12.7766 74.6767 12.3016 74.3094 11.9976C73.942 11.6936 73.486 11.5416 72.9414 11.5416C72.4474 11.5416 72.0167 11.6619 71.6494 11.9026C71.282 12.1306 71.054 12.4726 70.9654 12.9286H68.5904C68.6537 12.2446 68.8817 11.6493 69.2744 11.1426C69.6797 10.6359 70.199 10.2496 70.8324 9.98359C71.4657 9.70492 72.175 9.56559 72.9604 9.56559C74.303 9.56559 75.3607 9.90126 76.1334 10.5726C76.906 11.2439 77.2924 12.1939 77.2924 13.4226V19.2176H75.2214L74.9934 17.6976C74.7147 18.2043 74.322 18.6223 73.8154 18.9516C73.3214 19.2809 72.6817 19.4456 71.8964 19.4456ZM72.4474 17.5456C73.144 17.5456 73.6824 17.3176 74.0624 16.8616C74.455 16.4056 74.702 15.8419 74.8034 15.1706H72.7324C72.0864 15.1706 71.624 15.2909 71.3454 15.5316C71.0667 15.7596 70.9274 16.0446 70.9274 16.3866C70.9274 16.7539 71.0667 17.0389 71.3454 17.2416C71.624 17.4443 71.9914 17.5456 72.4474 17.5456ZM78.4732 19.2176V9.79359H80.6392L80.8672 11.5606C81.2092 10.9526 81.6715 10.4713 82.2542 10.1166C82.8495 9.74926 83.5462 9.56559 84.3442 9.56559V12.1306H83.6602C83.1282 12.1306 82.6532 12.2129 82.2352 12.3776C81.8172 12.5423 81.4879 12.8273 81.2472 13.2326C81.0192 13.6379 80.9052 14.2016 80.9052 14.9236V19.2176H78.4732ZM89.3164 19.4456C88.3537 19.4456 87.5051 19.2366 86.7704 18.8186C86.0357 18.4006 85.4531 17.8179 85.0224 17.0706C84.6044 16.3233 84.3954 15.4683 84.3954 14.5056C84.3954 13.5429 84.6044 12.6879 85.0224 11.9406C85.4531 11.1933 86.0357 10.6106 86.7704 10.1926C87.5051 9.77459 88.3537 9.56559 89.3164 9.56559C90.5197 9.56559 91.5331 9.88226 92.3564 10.5156C93.1797 11.1363 93.7054 11.9976 93.9334 13.0996H91.3684C91.2417 12.6436 90.9884 12.2889 90.6084 12.0356C90.2411 11.7696 89.8041 11.6366 89.2974 11.6366C88.6261 11.6366 88.0561 11.8899 87.5874 12.3966C87.1187 12.9033 86.8844 13.6063 86.8844 14.5056C86.8844 15.4049 87.1187 16.1079 87.5874 16.6146C88.0561 17.1213 88.6261 17.3746 89.2974 17.3746C89.8041 17.3746 90.2411 17.2479 90.6084 16.9946C90.9884 16.7413 91.2417 16.3803 91.3684 15.9116H93.9334C93.7054 16.9756 93.1797 17.8306 92.3564 18.4766C91.5331 19.1226 90.5197 19.4456 89.3164 19.4456ZM94.952 19.2176V5.53759H97.384V11.2376C97.7007 10.7183 98.125 10.3129 98.657 10.0216C99.2017 9.71759 99.8223 9.56559 100.519 9.56559C101.684 9.56559 102.584 9.93292 103.217 10.6676C103.863 11.4023 104.186 12.4789 104.186 13.8976V19.2176H101.773V14.1256C101.773 13.3149 101.608 12.6943 101.279 12.2636C100.962 11.8329 100.456 11.6176 99.759 11.6176C99.075 11.6176 98.505 11.8583 98.049 12.3396C97.6057 12.8209 97.384 13.4923 97.384 14.3536V19.2176H94.952Z" fill="white"/>
<g clip-path="url(#clip0_3_482)">
<path d="M23.9998 23.834L17.7378 17.5641C19.3644 15.5722 20.1642 13.0305 19.9716 10.4648C19.7791 7.89903 18.609 5.50553 16.7034 3.77935C14.7977 2.05317 12.3024 1.12638 9.73342 1.1907C7.16447 1.25501 4.71848 2.3055 2.9014 4.12487C1.08431 5.94425 0.0351378 8.39331 -0.029094 10.9655C-0.0933258 13.5377 0.832292 16.0362 2.5563 17.9442C4.28031 19.8522 6.67081 21.0238 9.23334 21.2166C11.7959 21.4094 14.3344 20.6086 16.3238 18.9799L22.5858 25.2498L23.9998 23.834ZM9.99978 19.2423C8.41753 19.2423 6.87081 18.7725 5.55522 17.8923C4.23963 17.0122 3.21425 15.7612 2.60875 14.2975C2.00324 12.8339 1.84482 11.2233 2.1535 9.6695C2.46218 8.1157 3.22411 6.68845 4.34293 5.56822C5.46175 4.44799 6.88721 3.68511 8.43906 3.37604C9.99091 3.06697 11.5994 3.22559 13.0612 3.83186C14.5231 4.43812 15.7725 5.46479 16.6515 6.78204C17.5306 8.09928 17.9998 9.64795 17.9998 11.2322C17.9974 13.3559 17.1538 15.3919 15.654 16.8935C14.1542 18.3952 12.1208 19.2399 9.99978 19.2423Z" fill="white"/>
</g>
<defs>
<clipPath id="clip0_3_482">
<rect width="24" height="24.0302" fill="white" transform="translate(0 1.21887)"/>
</clipPath>
</defs>
</svg>
