<svg width="112" height="60" viewBox="0 0 112 60" fill="none" xmlns="http://www.w3.org/2000/svg">
<path fill-rule="evenodd" clip-rule="evenodd" d="M30.7576 19.0057C30.3101 18.6648 29.6899 18.6648 29.2424 19.0057L19.8911 26.1305C19.2705 26.6034 18.9062 27.3389 18.9062 28.1191V40C18.9062 41.5151 20.238 42.5 21.5625 42.5H26.25H33.75H38.4375C39.762 42.5 41.0938 41.5151 41.0938 40V28.1191C41.0938 27.3389 40.7295 26.6034 40.1089 26.1305L30.7576 19.0057ZM35 40H38.4375C38.517 40 38.5688 39.9744 38.5938 39.9558V28.1191L30 21.5715L21.4062 28.1191L21.4062 39.9558C21.4312 39.9744 21.483 40 21.5625 40H25V32.5C25 31.8096 25.5596 31.25 26.25 31.25H33.75C34.4404 31.25 35 31.8096 35 32.5V40ZM27.5 40H32.5V33.75H27.5V40Z" fill="#D9D9D9"/>
<path d="M61.5381 36H64.1924V30.6562H69.9053V36H72.5596V23.3174H69.9053V28.4678H64.1924V23.3174H61.5381V36ZM79.2287 36.2021C82.2082 36.2021 84.0012 34.3213 84.0012 31.166V31.1484C84.0012 28.0195 82.1818 26.1123 79.2287 26.1123C76.2756 26.1123 74.4563 28.0283 74.4563 31.1484V31.166C74.4563 34.3125 76.2492 36.2021 79.2287 36.2021ZM79.2287 34.1895C77.8576 34.1895 77.0842 33.0732 77.0842 31.166V31.1484C77.0842 29.2588 77.8664 28.125 79.2287 28.125C80.5822 28.125 81.3732 29.2588 81.3732 31.1484V31.166C81.3732 33.0732 80.591 34.1895 79.2287 34.1895ZM85.643 36H88.2094V30.1641C88.2094 29.0566 88.9125 28.2393 89.9145 28.2393C90.9164 28.2393 91.5053 28.8457 91.5053 29.8828V36H94.0717V30.0498C94.0717 29.0039 94.7396 28.2393 95.7768 28.2393C96.849 28.2393 97.3764 28.8281 97.3764 29.9971V36H99.9428V29.3555C99.9428 27.3604 98.7387 26.1123 96.8139 26.1123C95.4604 26.1123 94.3354 26.8242 93.8959 27.8965H93.7377C93.3422 26.7803 92.3666 26.1123 91.0482 26.1123C89.7826 26.1123 88.7807 26.7451 88.3676 27.835H88.2094V26.3232H85.643V36ZM106.234 36.2021C109.064 36.2021 110.312 34.5674 110.611 33.3545L110.629 33.2666H108.238L108.212 33.3193C108.036 33.6885 107.412 34.2861 106.287 34.2861C104.924 34.2861 104.072 33.3633 104.046 31.7725H110.708V30.9727C110.708 28.0459 108.95 26.1123 106.129 26.1123C103.307 26.1123 101.505 28.0898 101.505 31.166V31.1748C101.505 34.2773 103.29 36.2021 106.234 36.2021ZM106.172 28.0371C107.289 28.0371 108.088 28.7578 108.247 30.1641H104.072C104.23 28.793 105.056 28.0371 106.172 28.0371Z" fill="#D9D9D9"/>
</svg>
