<svg width="200" height="56" viewBox="0 0 200 56" fill="none" xmlns="http://www.w3.org/2000/svg">
<rect x="16" y="15" width="26" height="26" rx="4" fill="#D9D9D9"/>
<path fill-rule="evenodd" clip-rule="evenodd" d="M33.9583 28C33.9583 30.7384 31.7384 32.9583 29 32.9583C26.2616 32.9583 24.0417 30.7384 24.0417 28C24.0417 25.2616 26.2616 23.0417 29 23.0417C31.7384 23.0417 33.9583 25.2616 33.9583 28ZM35.375 28C35.375 31.5208 32.5208 34.375 29 34.375C25.4792 34.375 22.625 31.5208 22.625 28C22.625 24.4792 25.4792 21.625 29 21.625C32.5208 21.625 35.375 24.4792 35.375 28ZM29.7083 25.875C29.7083 25.4838 29.3912 25.1667 29 25.1667C28.6088 25.1667 28.2917 25.4838 28.2917 25.875V27.2917H26.875C26.4838 27.2917 26.1667 27.6088 26.1667 28C26.1667 28.3912 26.4838 28.7083 26.875 28.7083H28.2917V30.125C28.2917 30.5162 28.6088 30.8333 29 30.8333C29.3912 30.8333 29.7083 30.5162 29.7083 30.125V28.7083H31.125C31.5162 28.7083 31.8333 28.3912 31.8333 28C31.8333 27.6088 31.5162 27.2917 31.125 27.2917H29.7083V25.875Z" fill="#181414"/>
<path d="M64.9258 34.3252C67.9844 34.3252 70.1553 32.5146 70.4277 29.8604L70.4365 29.7637H67.8525L67.835 29.834C67.5537 31.1875 66.4551 32.0752 64.9346 32.0752C62.9307 32.0752 61.6914 30.3877 61.6914 27.6631V27.6455C61.6914 24.9209 62.9307 23.2422 64.9258 23.2422C66.4375 23.2422 67.5713 24.209 67.8438 25.6328V25.6943H70.4277V25.5889C70.1816 22.9082 67.9316 20.9922 64.9258 20.9922C61.2432 20.9922 58.9756 23.5322 58.9756 27.6455V27.6631C58.9756 31.7764 61.252 34.3252 64.9258 34.3252ZM72.175 34H74.7414V28.5859C74.7414 27.2148 75.6643 26.3799 77.1232 26.3799C77.5188 26.3799 77.9143 26.4414 78.301 26.5293V24.2881C78.0461 24.2178 77.6857 24.165 77.343 24.165C76.0861 24.165 75.2072 24.7803 74.8996 25.8262H74.7414V24.3232H72.175V34ZM83.5902 34.2021C86.4203 34.2021 87.6684 32.5674 87.9672 31.3545L87.9848 31.2666H85.5941L85.5678 31.3193C85.392 31.6885 84.768 32.2861 83.643 32.2861C82.2807 32.2861 81.4281 31.3633 81.4018 29.7725H88.0639V28.9727C88.0639 26.0459 86.3061 24.1123 83.4848 24.1123C80.6635 24.1123 78.8617 26.0898 78.8617 29.166V29.1748C78.8617 32.2773 80.6459 34.2021 83.5902 34.2021ZM83.5287 26.0371C84.6449 26.0371 85.4447 26.7578 85.6029 28.1641H81.4281C81.5863 26.793 82.4125 26.0371 83.5287 26.0371ZM92.3512 34.1494C93.6168 34.1494 94.6363 33.6133 95.1285 32.7168H95.2867V34H97.818V27.3906C97.818 25.3252 96.3678 24.1123 93.8014 24.1123C91.3668 24.1123 89.7672 25.2373 89.565 26.9336L89.5562 27.0127H91.9293L91.9469 26.9775C92.149 26.4062 92.7379 26.0811 93.6607 26.0811C94.7154 26.0811 95.2867 26.5557 95.2867 27.3906V28.1904L92.9488 28.3311C90.5406 28.4717 89.1959 29.4912 89.1959 31.2314V31.249C89.1959 33.0068 90.5055 34.1494 92.3512 34.1494ZM91.7008 31.0908V31.0732C91.7008 30.3701 92.2369 29.957 93.3355 29.8867L95.2867 29.7637V30.4756C95.2867 31.4951 94.399 32.2773 93.2125 32.2773C92.3248 32.2773 91.7008 31.8291 91.7008 31.0908ZM103.898 34.0352C104.39 34.0352 104.865 33.9824 105.181 33.9209V32.0137C104.935 32.04 104.76 32.0576 104.426 32.0576C103.555 32.0576 103.186 31.6709 103.186 30.8008V26.2568H105.181V24.3232H103.186V22.0117H100.594V24.3232H99.0994V26.2568H100.594V31.3896C100.594 33.2705 101.543 34.0352 103.898 34.0352ZM111.051 34.2021C113.881 34.2021 115.129 32.5674 115.428 31.3545L115.445 31.2666H113.055L113.028 31.3193C112.853 31.6885 112.229 32.2861 111.104 32.2861C109.741 32.2861 108.889 31.3633 108.862 29.7725H115.524V28.9727C115.524 26.0459 113.767 24.1123 110.945 24.1123C108.124 24.1123 106.322 26.0898 106.322 29.166V29.1748C106.322 32.2773 108.106 34.2021 111.051 34.2021ZM110.989 26.0371C112.105 26.0371 112.905 26.7578 113.063 28.1641H108.889C109.047 26.793 109.873 26.0371 110.989 26.0371ZM121.621 34H124.275V30.001H126.85C129.522 30.001 131.306 28.2783 131.306 25.668V25.6504C131.306 23.04 129.522 21.3174 126.85 21.3174H121.621V34ZM126.2 23.418C127.72 23.418 128.617 24.2178 128.617 25.6592V25.6768C128.617 27.1182 127.72 27.9268 126.2 27.9268H124.275V23.418H126.2ZM133.132 34H135.699V20.623H133.132V34ZM140.54 34.1494C141.805 34.1494 142.825 33.6133 143.317 32.7168H143.475V34H146.007V27.3906C146.007 25.3252 144.556 24.1123 141.99 24.1123C139.555 24.1123 137.956 25.2373 137.754 26.9336L137.745 27.0127H140.118L140.136 26.9775C140.338 26.4062 140.927 26.0811 141.849 26.0811C142.904 26.0811 143.475 26.5557 143.475 27.3906V28.1904L141.137 28.3311C138.729 28.4717 137.385 29.4912 137.385 31.2314V31.249C137.385 33.0068 138.694 34.1494 140.54 34.1494ZM139.889 31.0908V31.0732C139.889 30.3701 140.426 29.957 141.524 29.8867L143.475 29.7637V30.4756C143.475 31.4951 142.588 32.2773 141.401 32.2773C140.513 32.2773 139.889 31.8291 139.889 31.0908ZM148.958 37.4102C151.349 37.4102 152.623 36.5488 153.484 33.9912L156.78 24.3232H154.073L152.043 31.6533H151.867L149.837 24.3232H147.016L150.417 34L150.329 34.3691C150.145 35.125 149.617 35.4766 148.703 35.4766C148.466 35.4766 148.211 35.4678 148.035 35.4502V37.3838C148.334 37.4014 148.659 37.4102 148.958 37.4102ZM158.202 34H160.769V20.623H158.202V34ZM164.283 22.8379C165.074 22.8379 165.724 22.2051 165.724 21.4141C165.724 20.6143 165.074 19.9814 164.283 19.9814C163.492 19.9814 162.832 20.6143 162.832 21.4141C162.832 22.2051 163.492 22.8379 164.283 22.8379ZM162.991 34H165.557V24.3232H162.991V34ZM171.541 34.2021C174.019 34.2021 175.786 32.9541 175.786 31.0381V31.0293C175.786 29.5967 174.88 28.7881 172.947 28.375L171.338 28.0322C170.337 27.8125 169.976 27.5137 169.976 26.9951V26.9863C169.976 26.3359 170.609 25.9229 171.497 25.9229C172.455 25.9229 173.026 26.4062 173.167 26.9248L173.175 26.9688H175.557V26.9336C175.452 25.3779 174.046 24.1123 171.505 24.1123C169.088 24.1123 167.471 25.3252 167.471 27.1445V27.1533C167.471 28.6035 168.385 29.5088 170.231 29.9043L171.848 30.2471C172.833 30.4668 173.219 30.792 173.219 31.3105V31.3281C173.219 31.9697 172.551 32.3916 171.567 32.3916C170.556 32.3916 169.967 31.9609 169.765 31.3633L169.748 31.3281H167.225L167.234 31.3633C167.419 33.0244 168.913 34.2021 171.541 34.2021ZM181.4 34.0352C181.892 34.0352 182.367 33.9824 182.683 33.9209V32.0137C182.437 32.04 182.262 32.0576 181.928 32.0576C181.057 32.0576 180.688 31.6709 180.688 30.8008V26.2568H182.683V24.3232H180.688V22.0117H178.096V24.3232H176.601V26.2568H178.096V31.3896C178.096 33.2705 179.045 34.0352 181.4 34.0352Z" fill="#D9D9D9"/>
</svg>
